<?xml version="1.0" encoding="UTF-8"?>
<svg xmlns="http://www.w3.org/2000/svg" xmlns:xlink="http://www.w3.org/1999/xlink" width="167px" height="50px" viewBox="0 0 166 50" version="1.1">
<g id="surface1">
<path style=" stroke:none;fill-rule:nonzero;fill:rgb(0%,0%,0%);fill-opacity:1;" d="M 2.988281 1.296875 C 2.988281 1.496094 3.121094 1.695312 3.320312 1.828125 C 3.519531 1.929688 3.519531 2.328125 3.320312 2.824219 C 2.953125 3.824219 3.019531 13.265625 3.417969 13.53125 C 3.550781 13.597656 3.519531 13.863281 3.351562 14.097656 C 2.855469 14.695312 2.589844 22.308594 3.054688 22.839844 C 3.285156 23.136719 3.285156 23.269531 3.019531 23.269531 C 2.523438 23.269531 2.554688 25.167969 3.085938 25.398438 C 3.320312 25.53125 3.351562 25.664062 3.152344 25.765625 C 2.65625 26.03125 2.722656 30.652344 3.253906 30.816406 C 3.785156 31.015625 3.785156 32.214844 3.21875 32.445312 C 2.722656 32.613281 2.65625 36.636719 3.152344 36.800781 C 3.519531 36.902344 3.484375 41.191406 3.121094 44.78125 C 2.953125 46.242188 3.019531 46.875 3.285156 46.875 C 3.484375 46.875 3.652344 47.175781 3.652344 47.539062 C 3.652344 48.136719 3.882812 48.203125 6.242188 48.238281 C 7.636719 48.238281 11.023438 48.335938 13.746094 48.402344 C 16.632812 48.503906 19.058594 48.4375 19.621094 48.238281 C 20.152344 48.070312 21.28125 48.003906 22.144531 48.136719 C 23.039062 48.269531 24.800781 48.269531 26.0625 48.171875 C 27.355469 48.070312 28.550781 48.136719 28.785156 48.269531 C 28.984375 48.4375 29.25 48.4375 29.347656 48.238281 C 29.480469 48.039062 29.78125 47.972656 30.011719 48.070312 C 30.277344 48.171875 30.578125 48.070312 30.710938 47.871094 C 30.875 47.605469 31.074219 47.605469 31.40625 47.90625 C 31.707031 48.136719 32.4375 48.203125 33.332031 48.105469 C 34.195312 47.972656 34.894531 48.039062 35.125 48.269531 C 35.390625 48.539062 35.625 48.539062 35.988281 48.238281 C 36.253906 48.003906 36.785156 47.90625 37.183594 48.039062 C 37.816406 48.238281 44.1875 48.371094 44.984375 48.203125 C 45.183594 48.171875 45.382812 48.171875 45.484375 48.203125 C 45.949219 48.371094 49.46875 48.402344 49.765625 48.238281 C 50 48.105469 50.164062 41.222656 50.265625 28.589844 C 50.363281 17.886719 50.496094 7.445312 50.597656 5.386719 C 50.664062 3.359375 50.628906 1.597656 50.464844 1.496094 C 50.03125 1.230469 47.210938 1.03125 46.976562 1.261719 C 46.878906 1.363281 45.484375 1.429688 43.890625 1.363281 C 42.296875 1.296875 40.039062 1.261719 38.84375 1.261719 C 37.648438 1.261719 35.957031 1.230469 35.027344 1.230469 C 34.128906 1.230469 30.910156 1.261719 27.886719 1.296875 C 24.867188 1.328125 20.320312 1.328125 17.761719 1.296875 C 11.886719 1.195312 10.390625 1.230469 7.371094 1.394531 C 6.007812 1.460938 4.847656 1.394531 4.78125 1.261719 C 4.546875 0.898438 2.988281 0.929688 2.988281 1.296875 Z M 21.511719 4.253906 C 21.910156 4.652344 22.042969 5.085938 21.878906 5.652344 C 21.746094 6.117188 21.644531 8.210938 21.613281 10.339844 C 21.578125 14.128906 21.578125 14.230469 22.574219 15.492188 C 25.828125 19.714844 25.5625 19.148438 25.5625 22.007812 L 25.5625 24.601562 L 19.921875 24.601562 L 19.988281 32.3125 L 20.085938 40.058594 L 22.441406 40.160156 L 24.800781 40.257812 L 25.132812 38.828125 C 25.429688 37.566406 25.496094 37.867188 25.53125 41.289062 C 25.5625 44.8125 25.496094 45.210938 24.933594 45.546875 C 24.003906 46.042969 15.503906 45.976562 15.007812 45.480469 C 14.707031 45.179688 14.609375 41.753906 14.609375 32.082031 L 14.609375 19.117188 L 16.203125 17.152344 C 17.066406 16.089844 17.960938 14.894531 18.160156 14.496094 C 18.660156 13.628906 18.757812 6.78125 18.261719 6.484375 C 17.730469 6.148438 17.863281 5.054688 18.492188 4.320312 C 19.222656 3.492188 20.71875 3.457031 21.511719 4.253906 Z M 28.71875 22.109375 C 28.320312 23.769531 28.21875 25.132812 28.386719 26.195312 C 28.617188 27.660156 29.382812 29.585938 29.746094 29.585938 C 29.8125 29.585938 29.746094 29.289062 29.546875 28.957031 C 29.382812 28.589844 29.214844 27.625 29.214844 26.796875 C 29.214844 25.300781 29.214844 25.300781 30.179688 25.464844 C 30.84375 25.597656 31.9375 25.367188 33.53125 24.734375 C 35.824219 23.835938 35.921875 23.835938 37.050781 24.367188 C 37.683594 24.667969 38.246094 24.933594 38.3125 24.933594 C 38.511719 24.933594 37.914062 21.410156 37.550781 20.546875 C 37.351562 20.046875 37.351562 19.546875 37.515625 19.449219 C 38.015625 19.117188 38.945312 22.640625 38.910156 25 C 38.910156 27.792969 38.015625 29.789062 36.15625 31.285156 C 34.0625 32.945312 33.863281 33.578125 33.863281 38.828125 C 33.863281 43.019531 33.929688 43.550781 34.5625 44.347656 C 34.960938 44.847656 35.558594 45.210938 36.023438 45.210938 C 36.453125 45.210938 36.917969 45.378906 37.019531 45.546875 C 37.152344 45.746094 35.855469 45.878906 33.367188 45.878906 C 30.875 45.878906 29.582031 45.746094 29.714844 45.546875 C 29.8125 45.347656 30.210938 45.210938 30.578125 45.210938 C 30.941406 45.210938 31.605469 44.847656 32.039062 44.382812 C 32.835938 43.617188 32.867188 43.417969 32.867188 38.894531 C 32.867188 33.644531 32.636719 32.878906 30.710938 31.382812 C 29.214844 30.253906 28.019531 28.191406 27.753906 26.328125 C 27.554688 24.867188 27.953125 21.640625 28.585938 20.046875 C 29.183594 18.417969 29.28125 19.582031 28.71875 22.109375 Z M 24.5 28.492188 C 24.003906 28.558594 23.105469 28.558594 22.507812 28.492188 C 21.910156 28.425781 22.308594 28.359375 23.40625 28.359375 C 24.5 28.359375 25 28.425781 24.5 28.492188 Z M 25.230469 29.585938 C 25.230469 29.753906 24.402344 29.921875 23.40625 29.921875 C 22.410156 29.921875 21.578125 29.753906 21.578125 29.585938 C 21.578125 29.386719 22.410156 29.253906 23.40625 29.253906 C 24.402344 29.253906 25.230469 29.386719 25.230469 29.585938 Z M 25.230469 30.917969 C 25.230469 31.082031 24.402344 31.25 23.40625 31.25 C 22.410156 31.25 21.578125 31.082031 21.578125 30.917969 C 21.578125 30.71875 22.410156 30.585938 23.40625 30.585938 C 24.402344 30.585938 25.230469 30.71875 25.230469 30.917969 Z M 25.230469 30.917969 "/>
<path style=" stroke:none;fill-rule:nonzero;fill:rgb(0%,0%,0%);fill-opacity:1;" d="M 61.1875 3.390625 C 60.789062 3.890625 58.332031 25.53125 58.632812 25.964844 C 58.730469 26.128906 59.59375 26.261719 60.523438 26.261719 L 62.28125 26.261719 L 62.847656 21.375 C 63.179688 18.683594 63.511719 16.421875 63.609375 16.324219 C 64.007812 15.890625 64.539062 17.253906 65.570312 21.476562 C 66.199219 24.003906 66.730469 26.128906 66.730469 26.164062 C 66.730469 26.230469 67.496094 26.261719 68.390625 26.261719 C 69.453125 26.261719 70.117188 26.097656 70.183594 25.832031 C 70.25 25.632812 70.816406 23.371094 71.378906 20.84375 C 71.976562 18.316406 72.574219 16.191406 72.707031 16.125 C 72.839844 16.023438 73.039062 16.289062 73.140625 16.722656 C 73.339844 17.386719 74.367188 25.367188 74.367188 25.996094 C 74.367188 26.128906 75.265625 26.261719 76.359375 26.261719 C 78.683594 26.261719 78.585938 26.527344 77.820312 22.207031 C 77.523438 20.511719 76.890625 15.523438 76.394531 11.136719 L 75.496094 3.160156 L 73.835938 3.058594 C 72.742188 2.992188 72.042969 3.125 71.8125 3.390625 C 71.613281 3.625 71.046875 5.75 70.582031 8.144531 C 69.519531 13.363281 68.789062 15.957031 68.425781 15.957031 C 67.859375 15.957031 67.261719 13.863281 65.46875 5.816406 L 64.871094 3.160156 L 63.210938 3.058594 C 62.117188 2.992188 61.421875 3.125 61.1875 3.390625 Z M 61.1875 3.390625 "/>
<path style=" stroke:none;fill-rule:nonzero;fill:rgb(0%,0%,0%);fill-opacity:1;" d="M 87.449219 3.789062 C 83.894531 5.453125 82.203125 8.808594 82.203125 14.296875 C 82.171875 18.183594 83.132812 21.640625 84.757812 23.503906 C 86.949219 25.996094 90.933594 26.960938 93.789062 25.632812 C 97.675781 23.871094 99.601562 19.382812 99.167969 12.964844 C 98.871094 8.210938 97.242188 5.417969 93.789062 3.789062 C 91.664062 2.757812 89.640625 2.757812 87.449219 3.789062 Z M 92.660156 7.082031 C 94.355469 8.179688 95.285156 10.339844 95.515625 13.664062 C 95.847656 18.449219 94.519531 21.574219 91.898438 22.308594 C 90.800781 22.605469 90.269531 22.574219 89.074219 22.109375 C 87.316406 21.410156 86.484375 20.046875 85.953125 16.722656 C 85.289062 12.632812 86.816406 7.777344 89.109375 6.78125 C 90.570312 6.148438 91.367188 6.214844 92.660156 7.082031 Z M 92.660156 7.082031 "/>
<path style=" stroke:none;fill-rule:nonzero;fill:rgb(0%,0%,0%);fill-opacity:1;" d="M 103.320312 3.390625 C 103.019531 3.691406 102.921875 6.714844 102.921875 15.027344 L 102.921875 26.261719 L 106.902344 26.261719 L 106.902344 21.941406 C 106.902344 19.546875 107.035156 17.621094 107.203125 17.621094 C 107.335938 17.621094 108.363281 19.546875 109.425781 21.941406 L 111.351562 26.261719 L 113.609375 26.261719 C 114.839844 26.261719 115.867188 26.195312 115.867188 26.097656 C 115.867188 25.996094 114.773438 23.769531 113.476562 21.109375 L 111.054688 16.289062 L 112.449219 14.894531 C 114.140625 13.164062 114.605469 12.035156 114.605469 9.609375 C 114.605469 6.617188 112.914062 3.988281 110.523438 3.324219 C 108.894531 2.859375 103.816406 2.890625 103.320312 3.390625 Z M 109.792969 7.847656 C 110.554688 8.609375 110.621094 8.910156 110.488281 10.503906 C 110.324219 12.601562 109.558594 13.628906 108.03125 13.730469 L 107.070312 13.796875 L 106.96875 10.835938 C 106.902344 9.207031 106.9375 7.679688 107.035156 7.414062 C 107.335938 6.683594 108.863281 6.914062 109.792969 7.847656 Z M 109.792969 7.847656 "/>
<path style=" stroke:none;fill-rule:nonzero;fill:rgb(0%,0%,0%);fill-opacity:1;" d="M 119.753906 3.226562 C 119.621094 3.324219 119.519531 4.15625 119.519531 5.054688 L 119.519531 6.648438 L 121.113281 6.648438 C 123.738281 6.648438 123.636719 6.351562 123.4375 14.363281 C 123.339844 18.25 123.304688 22.539062 123.40625 23.835938 L 123.605469 26.261719 L 127.15625 26.261719 L 127.222656 16.6875 L 127.320312 7.148438 L 129.148438 6.980469 L 130.972656 6.816406 L 131.074219 4.886719 L 131.171875 2.992188 L 125.5625 2.992188 C 122.476562 2.992188 119.851562 3.089844 119.753906 3.226562 Z M 119.753906 3.226562 "/>
<path style=" stroke:none;fill-rule:nonzero;fill:rgb(0%,0%,0%);fill-opacity:1;" d="M 139.773438 3.257812 C 139.773438 3.65625 137.347656 14.925781 136.152344 20.113281 C 134.691406 26.527344 134.660156 26.0625 136.652344 26.03125 C 137.613281 26.03125 138.511719 25.929688 138.710938 25.796875 C 138.875 25.699219 139.109375 25 139.242188 24.269531 L 139.441406 22.90625 L 141.796875 23.003906 L 144.15625 23.105469 L 144.71875 24.601562 L 145.25 26.0625 L 146.910156 25.964844 C 147.839844 25.929688 148.636719 25.796875 148.703125 25.730469 C 148.769531 25.664062 148.4375 24.003906 147.9375 22.042969 C 147.472656 20.046875 146.410156 15.125 145.582031 11.039062 C 144.785156 6.949219 144.023438 3.492188 143.921875 3.292969 C 143.65625 2.925781 139.773438 2.890625 139.773438 3.257812 Z M 142.925781 17.222656 L 143.160156 18.949219 L 141.796875 18.949219 C 141.035156 18.949219 140.4375 18.882812 140.4375 18.816406 C 140.4375 18.550781 141.464844 14.164062 141.664062 13.464844 C 141.832031 12.933594 141.964844 13.066406 142.296875 14.164062 C 142.496094 14.894531 142.792969 16.257812 142.925781 17.222656 Z M 142.925781 17.222656 "/>
<path style=" stroke:none;fill-rule:nonzero;fill:rgb(0%,0%,0%);fill-opacity:1;" d="M 152.621094 3.226562 C 152.320312 3.492188 152.320312 20.378906 152.585938 23.738281 L 152.820312 26.296875 L 157.5 26.195312 L 162.183594 26.097656 L 162.28125 24.964844 C 162.515625 22.507812 162.316406 22.308594 159.261719 22.207031 L 156.539062 22.109375 L 156.671875 13.628906 C 156.738281 8.976562 156.671875 4.652344 156.570312 4.054688 C 156.339844 3.023438 156.273438 2.992188 154.578125 2.992188 C 153.617188 2.992188 152.71875 3.089844 152.621094 3.226562 Z M 152.621094 3.226562 "/>
<path style=" stroke:none;fill-rule:nonzero;fill:rgb(0%,0%,0%);fill-opacity:1;" d="M 69.386719 30.386719 C 69.1875 30.585938 69.054688 33.710938 69.054688 38.464844 L 69.054688 46.175781 L 70.152344 46.375 C 70.714844 46.476562 72.242188 46.542969 73.503906 46.476562 C 76.128906 46.375 76.726562 45.878906 76.160156 44.316406 C 75.863281 43.449219 75.695312 43.382812 73.9375 43.285156 L 72.011719 43.183594 L 72.109375 41.15625 L 72.210938 39.128906 L 73.871094 39.0625 C 74.800781 39.027344 75.628906 38.960938 75.796875 38.960938 C 75.929688 38.929688 76.027344 38.296875 76.027344 37.566406 L 76.027344 36.238281 L 72.011719 36.238281 L 72.109375 34.640625 L 72.210938 33.078125 L 74.203125 32.914062 C 76.09375 32.746094 76.195312 32.710938 76.292969 31.816406 C 76.492188 30.152344 75.929688 29.855469 72.640625 29.953125 C 71.046875 30.019531 69.585938 30.1875 69.386719 30.386719 Z M 69.386719 30.386719 "/>
<path style=" stroke:none;fill-rule:nonzero;fill:rgb(0%,0%,0%);fill-opacity:1;" d="M 90.800781 30.1875 C 90.703125 30.285156 90.636719 33.910156 90.636719 38.265625 L 90.636719 46.210938 L 91.53125 46.410156 C 93.191406 46.839844 93.457031 46.308594 93.457031 42.6875 L 93.457031 39.394531 L 94.785156 39.296875 C 97.574219 39.128906 97.773438 38.894531 97.308594 36.46875 C 97.308594 36.335938 96.480469 36.238281 95.484375 36.238281 C 94.488281 36.238281 93.558594 36.070312 93.457031 35.902344 C 93.324219 35.703125 93.324219 34.972656 93.457031 34.242188 L 93.691406 32.945312 L 95.550781 32.847656 L 97.441406 32.746094 L 97.441406 30.085938 L 94.222656 30.054688 C 92.429688 30.019531 90.902344 30.085938 90.800781 30.1875 Z M 90.800781 30.1875 "/>
<path style=" stroke:none;fill-rule:nonzero;fill:rgb(0%,0%,0%);fill-opacity:1;" d="M 100.429688 30.1875 C 100.332031 30.285156 100.265625 33.910156 100.265625 38.265625 L 100.265625 46.210938 L 101.027344 46.375 C 101.425781 46.476562 102.953125 46.542969 104.414062 46.476562 L 107.070312 46.375 L 107.167969 45.078125 C 107.300781 43.515625 106.9375 43.21875 104.8125 43.21875 L 103.21875 43.21875 L 103.320312 41.15625 L 103.417969 39.097656 L 104.945312 39.164062 C 106.703125 39.296875 107.335938 38.761719 107.167969 37.332031 C 107.070312 36.4375 106.96875 36.402344 105.175781 36.304688 L 103.253906 36.203125 L 103.253906 32.945312 L 105.175781 32.847656 L 107.070312 32.746094 L 107.070312 30.085938 L 103.847656 30.054688 C 102.058594 30.019531 100.53125 30.085938 100.429688 30.1875 Z M 100.429688 30.1875 "/>
<path style=" stroke:none;fill-rule:nonzero;fill:rgb(0%,0%,0%);fill-opacity:1;" d="M 115.136719 30.386719 C 111.617188 31.648438 109.890625 34.308594 109.890625 38.398438 C 109.925781 43.582031 112.382812 46.507812 116.765625 46.542969 C 118.390625 46.542969 118.492188 46.507812 118.691406 45.546875 C 118.988281 44.148438 118.691406 43.882812 116.898438 43.882812 C 114.738281 43.882812 113.710938 43.050781 113.011719 40.660156 C 112.648438 39.429688 112.546875 38.332031 112.714844 37.300781 C 113.179688 34.207031 114.472656 32.914062 117.03125 32.914062 L 118.558594 32.914062 L 118.457031 31.484375 C 118.359375 30.1875 118.292969 30.085938 117.363281 30.019531 C 116.832031 29.953125 115.800781 30.152344 115.136719 30.386719 Z M 115.136719 30.386719 "/>
<path style=" stroke:none;fill-rule:nonzero;fill:rgb(0%,0%,0%);fill-opacity:1;" d="M 58.433594 38.398438 L 58.433594 46.542969 L 61.089844 46.542969 L 61.089844 43.714844 C 61.089844 41.023438 61.121094 40.890625 61.851562 40.890625 C 63.179688 40.859375 65.335938 39.660156 65.867188 38.597656 C 66.597656 37.234375 66.566406 34.042969 65.800781 32.578125 C 65.003906 30.949219 63.445312 30.253906 60.691406 30.253906 L 58.433594 30.253906 Z M 62.746094 33.179688 C 63.84375 34.074219 64.042969 36.46875 63.078125 37.632812 C 62.679688 38.164062 62.085938 38.5625 61.71875 38.5625 C 61.15625 38.5625 61.089844 38.296875 61.089844 35.570312 C 61.089844 32.347656 61.320312 32.015625 62.746094 33.179688 Z M 62.746094 33.179688 "/>
<path style=" stroke:none;fill-rule:nonzero;fill:rgb(0%,0%,0%);fill-opacity:1;" d="M 78.984375 30.320312 C 78.949219 30.386719 78.882812 34.042969 78.851562 38.464844 L 78.71875 46.542969 L 81.640625 46.542969 L 81.738281 43.484375 L 81.839844 40.390625 L 83.296875 43.484375 L 84.792969 46.542969 L 86.386719 46.542969 C 87.914062 46.542969 87.945312 46.507812 87.679688 45.777344 C 87.515625 45.347656 86.71875 43.785156 85.953125 42.320312 L 84.492188 39.660156 L 85.753906 38.265625 C 86.949219 36.933594 87.183594 36.203125 87.015625 34.074219 C 86.882812 32.746094 85.855469 31.117188 84.824219 30.652344 C 84.128906 30.320312 79.117188 30.054688 78.984375 30.320312 Z M 83.796875 33.644531 C 84.558594 34.742188 84.460938 36.136719 83.496094 37.066406 C 82.039062 38.5625 81.671875 38.199219 81.671875 35.40625 C 81.671875 32.980469 81.707031 32.914062 82.46875 32.914062 C 82.933594 32.914062 83.53125 33.246094 83.796875 33.644531 Z M 83.796875 33.644531 "/>
<path style=" stroke:none;fill-rule:nonzero;fill:rgb(0%,0%,0%);fill-opacity:1;" d="M 121.3125 30.71875 C 121.214844 30.984375 121.179688 31.550781 121.246094 31.980469 C 121.3125 32.613281 121.578125 32.746094 122.808594 32.847656 L 124.269531 32.945312 L 124.070312 38.164062 C 123.96875 41.023438 123.96875 44.082031 124.070312 44.945312 L 124.269531 46.542969 L 126.824219 46.542969 L 126.824219 32.914062 L 128.152344 32.914062 C 129.28125 32.914062 129.511719 32.777344 129.679688 32.082031 C 130.109375 30.386719 129.84375 30.253906 125.496094 30.253906 C 122.34375 30.253906 121.445312 30.351562 121.3125 30.71875 Z M 121.3125 30.71875 "/>
<path style=" stroke:none;fill-rule:nonzero;fill:rgb(0%,0%,0%);fill-opacity:1;" d="M 132.367188 30.484375 C 132.234375 30.585938 132.136719 34.273438 132.136719 38.628906 L 132.136719 46.574219 L 133.730469 46.476562 L 135.289062 46.375 L 135.222656 39.726562 C 135.191406 36.070312 135.125 32.445312 135.125 31.648438 L 135.125 30.253906 L 133.863281 30.253906 C 133.164062 30.253906 132.46875 30.351562 132.367188 30.484375 Z M 132.367188 30.484375 "/>
<path style=" stroke:none;fill-rule:nonzero;fill:rgb(0%,0%,0%);fill-opacity:1;" d="M 141.5 30.949219 C 138.777344 32.3125 137.945312 34.308594 138.179688 39.0625 C 138.410156 43.917969 140.070312 46.175781 143.625 46.476562 C 146.046875 46.675781 148.039062 45.546875 149.132812 43.316406 C 149.796875 41.953125 149.898438 41.222656 149.898438 38.230469 C 149.898438 35.207031 149.796875 34.574219 149.132812 33.410156 C 147.507812 30.585938 144.253906 29.519531 141.5 30.949219 Z M 145.480469 32.945312 C 146.578125 33.542969 147.40625 35.804688 147.40625 38.398438 C 147.40625 42.253906 145.914062 44.25 143.324219 43.75 C 142.328125 43.550781 141.964844 43.285156 141.464844 42.289062 C 139.605469 38.53125 141.035156 32.578125 143.789062 32.578125 C 144.355469 32.578125 145.085938 32.746094 145.480469 32.945312 Z M 145.480469 32.945312 "/>
<path style=" stroke:none;fill-rule:nonzero;fill:rgb(0%,0%,0%);fill-opacity:1;" d="M 152.953125 30.453125 C 152.820312 30.585938 152.71875 34.273438 152.71875 38.628906 L 152.71875 46.542969 L 155.808594 46.542969 L 155.574219 42.054688 C 155.441406 39.59375 155.476562 37.566406 155.609375 37.566406 C 155.742188 37.566406 156.703125 39.5625 157.699219 41.988281 L 159.527344 46.375 L 162.117188 46.375 L 162.148438 38.398438 L 162.183594 30.417969 L 160.753906 30.320312 L 159.328125 30.21875 L 159.425781 34.875 C 159.492188 37.964844 159.425781 39.429688 159.195312 39.195312 C 159.027344 39.027344 158.097656 36.96875 157.203125 34.640625 C 155.507812 30.417969 155.507812 30.417969 154.347656 30.320312 C 153.714844 30.253906 153.085938 30.320312 152.953125 30.453125 Z M 152.953125 30.453125 "/>
</g>
</svg>
